<svg xmlns="http://www.w3.org/2000/svg" xmlns:xlink="http://www.w3.org/1999/xlink" width="752" height="80"><svg width="34" height="32"><path fill="#2196f3" d="M4.267 0h25.6a4.267 4.267 0 014.267 4.267v23.467a4.267 4.267 0 01-4.267 4.267h-25.6A4.267 4.267 0 010 27.734V4.267A4.267 4.267 0 014.267 0z"/><path fill="#fff" stroke="#fff" stroke-width=".427" d="M8.442 16.537l-.147-.14-2.205 2.088 7.767 7.41 16.318-15.567-2.19-2.089-14.128 13.465-5.416-5.167z"/></svg><svg width="34" height="32" x="48"><path d="M30.341 3.556v24.889H3.793V3.556h26.548zm0-3.556H3.793C1.707 0 0 1.6 0 3.556v24.889c0 1.956 1.707 3.556 3.793 3.556h26.548c2.086 0 3.793-1.6 3.793-3.556V3.556C34.134 1.6 32.427 0 30.341 0z"/></svg><svg width="43" height="32" x="96"><path d="M37.333 0h-32c-2.2 0-3.98 1.8-3.98 4l-.02 24c0 2.2 1.8 4 4 4h32c2.2 0 4-1.8 4-4V4c0-2.2-1.8-4-4-4zm-.8 8.5l-14.14 8.84c-.64.4-1.48.4-2.12 0L6.133 8.5c-.5-.32-.8-.86-.8-1.44 0-1.34 1.46-2.14 2.6-1.44l13.4 8.38 13.4-8.38c1.14-.7 2.6.1 2.6 1.44 0 .58-.3 1.12-.8 1.44z"/></svg><svg width="32" height="32" x="192"><path d="M27.419 20.852l-4.201-.48a3.293 3.293 0 00-2.713.943l-3.044 3.044A24.888 24.888 0 016.56 13.458l3.06-3.06a3.293 3.293 0 00.943-2.713l-.48-4.168A3.31 3.31 0 006.791.589H3.929C2.06.589.505 2.144.621 4.013c.877 14.126 12.174 25.407 26.284 26.284 1.869.116 3.424-1.439 3.424-3.308v-2.862c.016-1.671-1.241-3.077-2.911-3.275z"/></svg><svg width="32" height="32" x="240"><path d="M16 16c2.947 0 5.333-2.387 5.333-5.333S18.946 5.334 16 5.334c-2.947 0-5.333 2.387-5.333 5.333S13.054 16 16 16zm0 2.667c-3.56 0-10.667 1.787-10.667 5.333v1.333c0 .733.6 1.333 1.333 1.333h18.667c.733 0 1.333-.6 1.333-1.333V24c0-3.547-7.107-5.333-10.667-5.333z"/></svg><svg width="32" height="32" x="288"><path fill="#fff" d="M32 0L0 18l10.227 3.788L26 7 14.002 23.186l.01.004-.012-.004V32l5.735-6.691L27 28l5-28z"/></svg><svg width="32" height="32" x="336"><path d="M32 3.223L28.777 0 16 12.777 3.223 0 0 3.223 12.777 16 0 28.777 3.223 32 16 19.223 28.777 32 32 28.777 19.223 16 32 3.223z"/></svg><svg width="32" height="32" y="48"><path d="M25 20a7 7 0 117-7l.031 1c0 7.732-6.268 14-14 14v-4a9.934 9.934 0 007.071-2.929c.364-.364.695-.75.995-1.157A7.081 7.081 0 0125 20zM7 20a7 7 0 117-7l.031 1c0 7.732-6.268 14-14 14v-4a9.934 9.934 0 007.071-2.929c.364-.364.695-.75.995-1.157A7.081 7.081 0 017 20z"/></svg><svg width="32" height="32" x="48" y="48"><path d="M22 2L12 12H6l-6 8s6.357-1.77 10.065-.94L0 32l13.184-10.255C15.023 25.953 12 32 12 32l8-6v-6l10-10 2-10-10 2z"/></svg><svg width="32" height="32" x="96" y="48"><path d="M13 3a3 3 0 116 0 3 3 0 01-6 0z"/><path d="M20 10l10.3-4.443-.743-1.857L17 8h-2L2.443 3.7 1.7 5.557 12 10v8L7.898 31.268l1.87.709L15.572 19h.857l5.804 12.977 1.87-.709L20.001 18z"/></svg><svg width="32" height="32" x="144" y="48"><path d="M16 0C7.163 0 0 7.163 0 16s7.163 16 16 16 16-7.163 16-16S24.837 0 16 0zm6 8c1.105 0 2 1.343 2 3s-.895 3-2 3-2-1.343-2-3 .895-3 2-3zM10 8c1.105 0 2 1.343 2 3s-.895 3-2 3-2-1.343-2-3 .895-3 2-3zm6 20c-5.215 0-9.544-4.371-10-9.947 2.93 1.691 6.377 2.658 10 2.658s7.07-.963 10-2.654c-.455 5.576-4.785 9.942-10 9.942z"/></svg></svg>